<?xml version="1.0" encoding="iso-8859-1"?>
<!-- Uploaded to: SVG Repo, www.svgrepo.com, Generator: SVG Repo Mixer Tools -->
<svg height="800px" width="800px" version="1.1" id="Layer_1" xmlns="http://www.w3.org/2000/svg" xmlns:xlink="http://www.w3.org/1999/xlink" 
	 viewBox="0 0 512 512" xml:space="preserve">
<path style="fill:#FE834D;" d="M421.978,78.769H388.22l-182.857,33.758v67.516h250.374v-67.516
	C455.736,93.96,440.545,78.769,421.978,78.769z"/>
<path style="fill:#FEA680;" d="M421.978,112.527H205.363V78.769H388.22C406.787,78.769,421.978,93.96,421.978,112.527z"/>
<path style="fill:#FFC1A6;" d="M421.978,146.286H388.22v264.44h33.758c18.567,0,33.758-15.191,33.758-33.758V180.044
	C455.736,161.477,440.545,146.286,421.978,146.286z"/>
<path style="fill:#FFDBCC;" d="M388.22,146.286H227.868V78.769c0-18.567-15.191-33.758-33.758-33.758H33.758
	C15.191,45.011,0,60.202,0,78.769v298.198c0,18.567,15.191,33.758,33.758,33.758H388.22c18.567,0,33.758-15.191,33.758-33.758
	V180.044C421.978,161.477,406.787,146.286,388.22,146.286z"/>
<path style="fill:#02ACAB;" d="M399.473,241.934v225.055c62.149,0,112.527-50.379,112.527-112.527S461.621,241.934,399.473,241.934z
	"/>
<path style="fill:#42C8C6;" d="M399.473,241.934c43.503,0,78.769,50.379,78.769,112.527s-35.266,112.527-78.769,112.527
	c-62.149,0-112.527-50.379-112.527-112.527S337.324,241.934,399.473,241.934z"/>
<path style="fill:#FFFFFF;" d="M455.736,337.582h-39.385v-39.385c0-9.322-7.557-16.879-16.879-16.879
	c-9.322,0-16.879,7.557-16.879,16.879v39.385h-39.385c-9.322,0-16.879,7.557-16.879,16.879s7.557,16.879,16.879,16.879h39.385
	v39.385c0,9.322,7.557,16.879,16.879,16.879c9.322,0,16.879-7.557,16.879-16.879v-39.385h39.385c9.322,0,16.879-7.557,16.879-16.879
	S465.058,337.582,455.736,337.582z"/>
<g>
	<circle style="fill:#FEA680;" cx="101.275" cy="146.286" r="8.44"/>
	<circle style="fill:#FEA680;" cx="67.516" cy="112.527" r="8.44"/>
</g>
</svg>