<?xml version="1.0" encoding="iso-8859-1"?>
<!-- Uploaded to: SVG Repo, www.svgrepo.com, Generator: SVG Repo Mixer Tools -->
<svg height="800px" width="800px" version="1.1" id="Layer_1" xmlns="http://www.w3.org/2000/svg" xmlns:xlink="http://www.w3.org/1999/xlink" 
	 viewBox="0 0 451.277 451.277" xml:space="preserve">
<circle style="fill:#EFC84A;" cx="225.638" cy="225.638" r="225.638"/>
<path style="opacity:0.1;enable-background:new    ;" d="M440.572,294.454L256.735,110.578l-4.137-4.138
	c-7.193-6.299-16.642-10.107-26.938-10.107c-22.707,0-41.183,18.476-41.183,41.183v81.331c0,13.916,6.958,26.279,17.583,33.708
	l31.498,31.498c-2.586,0.329-5.218,0.47-7.898,0.47l-65.676-65.676h-21.814c0,23.788,9.543,45.367,25.01,61.116l51.572,51.572
	v23.365l84.162,84.163C366.06,416.012,418.891,362.221,440.572,294.454z"/>
<path style="fill:#EBF0F3;" d="M313.09,218.857h-21.785c0,36.209-29.456,65.665-65.665,65.665s-65.668-29.457-65.668-65.665h-21.784
	c0,44.53,33.465,81.366,76.56,86.747v49.317h21.785v-49.317C279.627,300.223,313.09,263.387,313.09,218.857z"/>
<path style="fill:#3A556A;" d="M225.64,96.355h-0.001v163.66h0.001c22.694,0,41.158-18.463,41.158-41.158v-81.344
	C266.797,114.819,248.334,96.355,225.64,96.355z"/>
<path style="fill:#64798A;" d="M184.479,137.513v81.344c0,22.694,18.463,41.157,41.159,41.158V96.355
	C202.942,96.356,184.479,114.819,184.479,137.513z"/>
</svg>